HIERARCHY
ROOT Hips
{
	OFFSET 0.000000 0.000000 0.000000
	CHANNELS 6 Xposition Yposition Zposition Zrotation Yrotation Xrotation 
	JOINT LHipJoint
	{
		OFFSET 0.000000 0.000000 0.000000
		CHANNELS 3 Zrotation Yrotation Xrotation
		JOINT LeftUpLeg
		{
			OFFSET 1.363060 -1.794630 0.839290
			CHANNELS 3 Zrotation Yrotation Xrotation
			JOINT LeftLeg
			{
				OFFSET 2.448110 -6.726130 0.000000
				CHANNELS 3 Zrotation Yrotation Xrotation
				JOINT LeftFoot
				{
					OFFSET 2.562200 -7.039590 0.000000
					CHANNELS 3 Zrotation Yrotation Xrotation
					JOINT LeftToeBase
					{
						OFFSET 0.157640 -0.433110 2.322550
						CHANNELS 3 Zrotation Yrotation Xrotation
						End Site
						{
							OFFSET 0.000000 0.000000 0.000000
						}
					}
				}
			}
		}
	}
	JOINT RHipJoint
	{
		OFFSET 0.000000 0.000000 0.000000
		CHANNELS 3 Zrotation Yrotation Xrotation
		JOINT RightUpLeg
		{
			OFFSET -1.305520 -1.794630 0.839290
			CHANNELS 3 Zrotation Yrotation Xrotation
			JOINT RightLeg
			{
				OFFSET -2.542530 -6.985550 0.000000
				CHANNELS 3 Zrotation Yrotation Xrotation
				JOINT RightFoot
				{
					OFFSET -2.568260 -7.056230 0.000000
					CHANNELS 3 Zrotation Yrotation Xrotation
					JOINT RightToeBase
					{
						OFFSET -0.164730 -0.452590 2.363150
						CHANNELS 3 Zrotation Yrotation Xrotation
						End Site
						{
							OFFSET 0.000000 0.000000 0.000000
						}
					}
				}
			}
		}
	}
}
MOTION
Frames: 30
Frame Time: 0.008333
-12.672203 17.751559 -0.997483 -126.895207 89.463968 -99.093603 -11.858780 2.932447 0.410377 -7.439483 5.148836 -13.912718 -1.237808 0.490361 15.371713 0.447090 1.350999 15.348787 0.483300 0.000001 -65.021300 7.785062 -1.039312 3.694422 11.918078 11.513845 -47.341035 1.847329 -2.088860 35.633921 -1.006508 -2.169053 -8.267176 -0.278100 0.000001 -34.965799
-12.443808 17.805293 -0.990661 -128.262045 89.400650 -100.397543 -11.930367 2.948130 0.349997 -6.987545 5.048405 -13.453234 -1.118082 0.549548 15.660193 0.513835 1.495781 16.463828 0.517200 0.000001 -64.122000 7.573546 -1.155427 3.903463 12.253334 11.870008 -46.617010 2.167869 -1.712885 31.528079 -0.885619 -1.864865 -7.087498 -0.382300 0.000000 -35.741200
-12.216726 17.847079 -0.981786 -133.028524 89.441220 -105.117624 -11.988163 2.962374 0.311756 -6.664168 4.751373 -13.061459 -1.000313 0.610494 16.270367 0.599755 1.965788 17.039286 0.674800 -0.000000 -63.133100 7.389057 -1.230865 4.075653 12.489162 12.128242 -45.918809 2.431153 -1.339381 27.776695 -0.785233 -1.729890 -5.833323 -0.495900 0.000000 -36.430400
-11.991671 17.877180 -0.971358 -140.436431 89.572994 -112.518300 -12.030732 2.980015 0.282965 -6.455082 4.333348 -12.737644 -0.891557 0.679221 17.224046 0.698283 2.682789 17.105416 0.925700 -0.000000 -61.791700 7.241679 -1.262768 4.194346 12.658853 12.281045 -45.250882 2.631945 -0.992530 24.497116 -0.705904 -1.742550 -4.543161 -0.621400 0.000001 -37.038200
-11.768658 17.895711 -0.959621 -151.644963 89.811213 -123.766155 -12.057076 3.016767 0.263351 -6.355695 3.846483 -12.483570 -0.801855 0.763748 18.489126 0.810129 3.591937 16.767064 1.237900 -0.000000 -60.534300 7.142658 -1.241364 4.244996 12.797365 12.314305 -44.629269 2.771205 -0.692371 21.796497 -0.642605 -1.851185 -3.271906 -0.754800 0.000000 -37.531300
-11.548035 17.902793 -0.946919 12.277532 89.835848 40.059702 -12.025321 3.092941 0.240994 -6.325961 3.373329 -12.302827 -0.747770 0.875263 20.052941 0.931773 4.593829 16.107133 1.559400 -0.000000 -59.316300 7.142121 -1.143254 4.224509 12.959932 12.252744 -44.039304 2.855247 -0.453709 19.724372 -0.593086 -2.019009 -2.067622 -0.890001 -0.000000 -37.892200
-11.329820 17.898448 -0.933398 -8.831501 89.490972 18.786602 -11.803237 3.193271 0.190490 -6.266346 2.963107 -12.178054 -0.717159 1.001357 21.910443 1.048424 5.585151 15.225620 1.849100 0.000000 -58.151500 7.360194 -0.976639 4.166644 13.215291 12.119425 -43.481504 2.899279 -0.305399 18.259453 -0.567625 -2.240442 -0.995159 -1.018900 0.000000 -38.076500
-11.113898 17.882543 -0.919036 -31.628598 89.561346 -4.263482 -11.456251 3.191764 0.088068 -6.130758 2.589709 -12.066769 -0.619695 1.083467 24.052309 1.140155 6.491787 14.257211 2.090300 -0.000000 -57.275700 7.678863 -0.915033 4.111227 13.502982 11.853141 -42.992889 2.918945 -0.276827 17.335734 -0.582283 -2.516408 -0.157015 -1.130500 0.000000 -38.021200
-10.900048 17.854583 -0.903803 -49.519848 89.909854 -22.484710 -11.301835 3.117530 -0.037202 -6.043178 2.338006 -12.029219 -0.486953 1.156348 26.424306 1.220698 7.265794 13.229431 2.252100 -0.000000 -56.273900 7.804897 -0.969911 4.008389 13.698639 11.489094 -42.522317 2.902775 -0.307413 16.953142 -0.615317 -2.789174 0.406907 -1.219800 -0.000000 -37.623800
-10.687708 17.814368 -0.887457 118.220447 89.745810 144.872648 -11.262731 3.067380 -0.162174 -6.009494 2.205875 -12.060328 -0.376246 1.258875 28.910848 1.305199 7.965951 12.238276 2.362500 -0.000000 -55.554100 7.847957 -1.010545 3.846065 13.833184 11.096463 -42.020521 2.851620 -0.367765 17.085868 -0.652875 -3.011704 0.660543 -1.273400 -0.000000 -36.818200
-10.476242 17.761443 -0.869908 110.842173 89.446183 137.074491 -11.250547 3.049012 -0.291023 -5.971542 2.194421 -12.167927 -0.288374 1.388933 31.495679 1.387901 8.582488 11.299670 2.427800 -0.000000 -54.964900 7.890935 -1.014677 3.654305 13.932112 10.726232 -41.484833 2.774954 -0.453245 17.655298 -0.701907 -3.198362 0.543597 -1.285000 0.000000 -35.525000
-10.264914 17.695620 -0.851262 106.913756 89.176152 132.706271 -11.240865 3.050767 -0.420217 -5.903286 2.273860 -12.359789 -0.211364 1.536967 34.157883 1.467576 9.140109 10.425338 2.464300 -0.000000 -54.472399 7.947927 -0.991988 3.456921 13.994228 10.404501 -40.930437 2.681522 -0.557544 18.594278 -0.768174 -3.359799 -0.004631 -1.248701 -0.000000 -33.698600
-10.053009 17.616919 -0.831776 105.391207 88.927290 130.745683 -11.232089 3.063387 -0.541743 -5.793420 2.411658 -12.654019 -0.136580 1.695769 36.882342 1.546335 9.676119 9.604961 2.486400 0.000000 -54.026600 8.012961 -0.951824 3.272530 14.020343 10.155948 -40.381489 2.579213 -0.672506 19.850000 -0.856555 -3.509139 -1.027303 -1.160700 -0.000000 -31.349600
-9.839823 17.525756 -0.811923 105.563467 88.698142 130.504602 -11.228130 3.079702 -0.646098 -5.636579 2.575487 -13.073255 -0.057956 1.859726 39.659150 1.628215 10.234158 8.817484 2.506200 0.000000 -53.609200 8.076411 -0.901471 3.115998 14.021344 10.002406 -39.869554 2.475730 -0.791468 21.384221 -0.971851 -3.659641 -2.549982 -1.016600 0.000000 -28.472900
-9.624828 17.422968 -0.792357 106.949773 88.491418 131.524788 -11.233932 3.093440 -0.724568 -5.430347 2.738114 -13.642760 0.028240 2.024445 42.484646 1.717143 10.851982 8.026076 2.528700 0.000001 -53.125000 8.129506 -0.847463 2.998633 14.016944 9.959260 -39.430959 2.377529 -0.910789 23.168847 -1.118896 -3.825839 -4.564555 -0.812600 0.000000 -25.137401
-9.407693 17.309909 -0.773817 109.199954 88.311786 133.474904 -11.253891 3.098771 -0.770087 -5.175633 2.876842 -14.383796 0.124496 2.186399 45.354020 1.816741 11.559483 7.197379 2.554200 0.000000 -52.526400 8.165735 -0.795792 2.927169 14.031474 10.031803 -39.100823 2.289619 -1.029840 25.181720 -1.301528 -4.018053 -7.032350 -0.543301 0.000000 -21.408900
-9.188344 17.188443 -0.757081 112.065575 88.165804 136.120918 -11.291030 3.090512 -0.778464 -4.876634 2.976428 -15.311606 0.231757 2.343231 48.261084 1.929094 12.370085 6.296861 2.575701 0.000000 -51.710199 8.182215 -0.752221 2.904090 14.088290 10.214797 -38.906691 2.214170 -1.150516 27.396184 -1.521026 -4.244955 -9.865315 -0.206400 -0.000000 -17.503100
-8.967071 17.060928 -0.742764 115.358688 88.060674 139.281675 -11.346495 3.064234 -0.748799 -4.539879 3.028078 -16.429327 0.350158 2.493518 51.190640 2.055097 13.282556 5.308337 2.583500 0.000000 -50.683300 8.179098 -0.721384 2.926573 14.207435 10.491142 -38.861896 2.152276 -1.275542 29.778739 -1.774959 -4.505179 -12.961041 0.198700 0.000000 -13.511500
-8.744412 16.930144 -0.731325 118.937143 88.003652 142.814761 -11.419160 3.016782 -0.684001 -4.175042 3.029974 -17.729687 0.478554 2.637209 54.122326 2.193399 14.275825 4.222294 2.563100 0.000000 -49.408301 8.160060 -0.706944 2.987878 14.401125 10.835457 -38.960515 2.102584 -1.407321 32.277650 -2.055613 -4.793373 -16.181582 0.663800 -0.000000 -9.656500
-8.521133 16.799255 -0.722942 122.686872 88.001477 146.599164 -11.505748 2.946720 -0.590165 -3.794274 2.985629 -19.193768 0.614897 2.775269 57.027467 2.340649 15.313215 3.042314 2.499500 0.000001 -47.889800 8.130941 -0.710829 3.077667 14.672923 11.215977 -39.175665 2.063034 -1.546324 34.824963 -2.350209 -5.095627 -19.384758 1.172300 0.000000 -6.124700
-8.298234 16.671560 -0.717468 126.504851 88.059893 150.517469 -11.601289 2.854480 -0.476086 -3.412220 2.901870 -20.791456 0.756498 2.909488 59.871071 2.491745 16.347617 1.782412 2.380500 0.000000 -46.152400 8.098372 -0.732851 3.182534 15.017494 11.596884 -39.460310 2.031900 -1.690252 37.337765 -2.642094 -5.389504 -22.437118 1.698401 -0.000000 -3.067000
-8.076705 16.550462 -0.714406 130.269991 88.181318 154.429182 -11.699624 2.742365 -0.351858 -3.046787 2.786409 -22.485282 0.900143 3.041755 62.613029 2.640265 17.327466 0.463665 2.198801 0.000000 -44.245600 8.068744 -0.770835 3.287318 15.421213 11.941329 -39.752446 2.008492 -1.834103 39.725653 -2.912971 -5.645125 -25.226475 2.209800 0.000000 -0.585700
-7.857473 16.439216 -0.712952 133.799279 88.363904 158.128776 -11.794121 2.613926 -0.227520 -2.718142 2.645494 -24.233906 1.042368 3.173200 65.211485 2.779170 18.202949 -0.890479 1.953400 -0.000000 -42.226900 8.047412 -0.821312 3.376678 15.862418 12.213494 -39.983925 1.993572 -1.971047 41.898576 -3.145434 -5.828436 -27.668550 -177.328700 -0.000000 -1.255200
-7.641253 16.340717 -0.712029 136.792722 88.599871 161.293043 -11.877762 2.473086 -0.111832 -2.448814 2.481619 -25.995442 1.179547 3.303119 67.624050 2.901828 18.932568 -2.257214 1.650300 -0.000001 -40.156300 8.038793 -0.880560 3.436508 16.313196 12.380488 -40.087695 1.989289 -2.093796 43.775096 -3.325144 -5.905905 -29.709977 -176.950401 -0.000000 -2.420200
-7.428380 16.257410 -0.710413 138.716534 88.872427 163.366873 -11.942515 2.322979 -0.011089 -2.260926 2.291305 -27.731012 1.308156 3.427908 69.811409 3.002970 19.487801 -3.616083 1.300700 -0.000000 -38.082900 8.047346 -0.945765 3.456058 16.741274 12.414665 -40.006865 1.998652 -2.196092 45.287868 -3.442278 -5.850569 -31.326068 -176.681700 0.000000 -2.893599
-7.218847 16.191082 -0.706878 138.620957 89.152937 163.382789 -11.978422 2.164244 0.071105 -2.173834 2.064894 -29.407662 1.424896 3.540118 71.738093 3.079554 19.856154 -4.949626 0.920300 -0.000001 -36.052900 8.078612 -1.016145 3.429216 17.113615 12.295666 -39.699845 2.025055 -2.274095 46.387068 -3.492473 -5.648203 -32.518477 -176.537199 -0.000000 -2.685400
-7.012167 16.142879 -0.700261 134.866614 89.393141 159.689367 -11.975563 1.992399 0.134337 -2.201790 1.785501 -30.999076 1.527032 3.627982 73.374514 3.131339 20.042878 -6.239487 0.527400 0.000000 -34.117400 8.137629 -1.095302 3.355387 17.399039 12.011507 -39.143932 2.071549 -2.327229 47.040870 -3.477010 -5.301778 -33.310449 -176.518100 0.000001 -1.842500
-6.807451 16.113276 -0.689651 125.024307 89.516153 149.851367 -11.937031 1.794284 0.181686 -2.361435 1.430965 -32.484737 1.610682 3.678985 74.696904 3.160465 20.067051 -7.477334 0.137001 -0.000000 -32.239300 8.217496 -1.195119 3.237184 17.564267 11.557281 -38.335734 2.138743 -2.357157 47.237524 -3.402437 -4.830879 -33.742638 -176.612000 -0.000000 -0.466100
-6.603555 16.102177 -0.674458 108.277804 89.450983 133.056555 -11.896534 1.564802 0.223861 -2.677931 0.989721 -33.856332 1.666387 3.698029 75.678567 3.171732 19.965963 -8.638418 -0.232800 -0.000000 -30.514300 8.286200 -1.322524 3.076513 17.572879 10.947267 -37.283529 2.218988 -2.358354 46.991730 -3.281197 -4.268016 -33.863698 3.204700 -0.000000 -1.293800
-6.399043 16.108962 -0.654504 90.382458 89.216790 115.074032 -11.861675 1.345161 0.271275 -3.145548 0.489035 -35.124270 1.682287 3.711776 76.293765 3.171026 19.781732 -9.710353 -0.571900 0.000000 -28.924499 8.339690 -1.441174 2.880046 17.423462 10.237664 -35.991260 2.300687 -2.315206 46.337722 -3.129142 -3.651704 -33.719767 2.962500 0.000000 -3.206000
